# xmcd
#
# Track frame offsets:
#	150
#	15085
#	26860
#	40105
#	55825
#	70522
#	87490
#	101140
#	117602
#	133212
#	147207
#	162107
#	179352
#	192890
#	205362
#	219627
#
# Disc length: 3133 seconds
#
# Revision: 1
# Processed by: cddbd v1.5.1PL2 Copyright (c) Steve Scherf et al.
# Submitted via: audiograbber 1.83.01
#
DISCID=e70c3b10
DTITLE=Logue and McCool - Cowboys and Outlaws
DYEAR=1900
DGENRE=
TTITLE0=Cowboys and Outlaws
TTITLE1=Got No Reason for Going Home
TTITLE2=Strangers and Lovers
TTITLE3=Morning Sun and Memories
TTITLE4=World a Better Place
TTITLE5=Country Come to Town
TTITLE6=The Cowboy and The Lady
TTITLE7=Carmen
TTITLE8=Old Soldiers
TTITLE9=Ain't Necessarily So
TTITLE10=Brotherly Love
TTITLE11=Love Me
TTITLE12=The Chair
TTITLE13=My Heart
TTITLE14=I Miss My Mary
TTITLE15=Twinkle Twinkle Lucky Star
EXTD=
EXTT0=
EXTT1=
EXTT2=
EXTT3=
EXTT4=
EXTT5=
EXTT6=
EXTT7=
EXTT8=
EXTT9=
EXTT10=
EXTT11=
EXTT12=
EXTT13=
EXTT14=
EXTT15=
PLAYORDER=
